<?xml version="1.0" standalone="no"?>
<!DOCTYPE svg PUBLIC "-//W3C//DTD SVG 20010904//EN"
 "http://www.w3.org/TR/2001/REC-SVG-20010904/DTD/svg10.dtd">
<svg version="1.0" xmlns="http://www.w3.org/2000/svg"
 width="1280.000000pt" height="720.000000pt" viewBox="0 0 1280.000000 720.000000"
 preserveAspectRatio="xMidYMid meet">

<g transform="translate(0.000000,720.000000) scale(0.100000,-0.100000)"
fill="#000000" stroke="none">
<path d="M0 3600 l0 -3600 6400 0 6400 0 0 3600 0 3600 -6400 0 -6400 0 0
-3600z m5780 1600 l0 -60 -55 0 -55 0 0 60 0 60 55 0 55 0 0 -60z m40 0 c0
-33 -4 -60 -10 -60 -6 0 -10 27 -10 60 0 33 4 60 10 60 6 0 10 -27 10 -60z
m1248 -427 l2 -483 -230 0 -230 0 0 135 0 135 55 0 55 0 0 -75 0 -75 120 0
120 0 0 370 0 370 -520 0 -520 0 0 48 c0 27 3 52 7 55 3 4 261 6 572 5 l566
-3 3 -482z m-768 217 l0 -60 -130 0 -130 0 0 -315 0 -315 -55 0 -55 0 0 315 0
315 -130 0 -130 0 0 60 0 60 315 0 315 0 0 -60z m210 0 l0 -60 -55 0 -55 0 0
60 0 60 55 0 55 0 0 -60z m0 -90 c0 -5 -25 -10 -55 -10 -30 0 -55 5 -55 10 0
6 25 10 55 10 30 0 55 -4 55 -10z m-735 -1480 l0 -1415 -52 -3 -53 -3 0 1421
0 1421 53 -3 52 -3 0 -1415z m733 1148 l-3 -273 -52 -3 -53 -3 0 275 0 276 55
0 55 0 -2 -272z m212 21 c0 -6 -22 -9 -55 -8 -30 1 -55 6 -55 11 0 4 25 8 55
8 32 0 55 -4 55 -11z m350 -669 l0 -280 -575 0 -575 0 0 280 0 280 575 0 575
0 0 -280z m-1030 -390 c0 -5 -25 -10 -55 -10 -30 0 -55 5 -55 10 0 6 25 10 55
10 30 0 55 -4 55 -10z m1030 -455 l0 -465 -465 0 -465 0 0 465 0 465 465 0
465 0 0 -465z m-1030 405 c0 -5 -25 -10 -55 -10 -30 0 -55 5 -55 10 0 6 25 10
55 10 30 0 55 -4 55 -10z m0 -515 l0 -455 460 0 460 0 0 -55 0 -55 -520 0
-520 0 0 510 0 510 60 0 60 0 0 -455z m980 -510 c0 -30 -4 -55 -10 -55 -5 0
-10 25 -10 55 0 30 5 55 10 55 6 0 10 -25 10 -55z m50 0 c0 -30 -4 -55 -10
-55 -5 0 -10 25 -10 55 0 30 5 55 10 55 6 0 10 -25 10 -55z m-1056 -261 c3 -9
6 -23 5 -32 -1 -10 -4 -6 -8 8 -5 18 -14 25 -31 25 -24 0 -25 -2 -28 -81 -2
-63 1 -84 13 -94 19 -15 41 0 48 33 4 14 5 12 4 -7 -2 -36 -29 -56 -54 -40
-14 9 -19 28 -21 85 -4 101 1 119 37 119 17 0 31 -6 35 -16z m160 0 c18 -18
21 -47 6 -74 -7 -13 -7 -21 0 -25 5 -3 9 -27 8 -53 l-1 -47 -4 40 c-5 46 -18
65 -44 65 -15 0 -19 -10 -22 -52 -2 -29 -4 -5 -5 55 l-2 107 24 0 c14 0 32 -7
40 -16z m113 -141 c-2 -32 -3 -8 -3 52 0 61 1 87 3 58 2 -29 2 -78 0 -110z
m170 76 c6 -41 11 -87 11 -104 l0 -30 -7 30 c-9 45 -47 47 -60 3 -17 -60 -7
48 15 155 10 48 28 24 41 -54z m140 69 c-13 -10 -17 -34 -20 -108 l-3 -95 -2
102 c-2 87 -4 102 -19 106 -10 3 0 5 21 6 34 1 37 -1 23 -11z m110 -145 c-2
-32 -3 -8 -3 52 0 61 1 87 3 58 2 -29 2 -78 0 -110z m124 60 l15 -98 12 75
c17 101 22 123 27 118 2 -2 -3 -50 -12 -106 -21 -135 -36 -134 -55 3 -8 58
-11 105 -8 105 3 0 13 -44 21 -97z m217 -5 c2 -87 1 -97 -16 -102 -44 -14 -52
0 -52 98 0 51 3 96 7 100 4 4 19 6 33 4 25 -3 25 -4 28 -100z"/>
<path d="M6040 3920 l0 -170 460 0 460 0 0 170 0 170 -460 0 -460 0 0 -170z"/>
<path d="M6257 3423 c-4 -3 -7 -161 -7 -349 l0 -343 351 -3 c193 -2 353 -1
355 1 2 2 4 161 4 353 l0 348 -348 0 c-192 0 -352 -3 -355 -7z"/>
<path d="M6127 2193 c-14 -13 -7 -74 8 -79 21 -8 45 14 45 40 0 34 -34 59 -53
39z"/>
<path d="M6427 2173 c-3 -10 -9 -37 -12 -60 -6 -39 -5 -43 15 -43 20 0 21 3
14 58 -7 65 -10 71 -17 45z"/>
<path d="M6995 2187 c-3 -7 -5 -49 -3 -93 3 -71 5 -79 23 -79 19 0 20 7 20 90
0 78 -2 90 -18 93 -9 2 -19 -3 -22 -11z"/>
</g>
</svg>
